<svg width="328" height="245" viewBox="0 0 328 245" fill="none" xmlns="http://www.w3.org/2000/svg">
<path d="M328 214.774H0V214.938H328V214.774Z" fill="#EBEBEB"/>
<path d="M295.134 225.329H280.912V225.493H295.134V225.329Z" fill="#EBEBEB"/>
<path d="M226.104 221.931H203.727V222.095H226.104V221.931Z" fill="#EBEBEB"/>
<path d="M289.375 219.242H260.163V219.406H289.375V219.242Z" fill="#EBEBEB"/>
<path d="M113.501 222.548H106.193V222.712H113.501V222.548Z" fill="#EBEBEB"/>
<path d="M100.348 222.548H75.1645V222.712H100.348V222.548Z" fill="#EBEBEB"/>
<path d="M61.6706 219.78H43.4994V219.944H61.6706V219.78Z" fill="#EBEBEB"/>
<path d="M155.472 185.517H28.8049C27.8126 185.515 26.8616 185.12 26.1605 184.417C25.4595 183.715 25.0657 182.763 25.0657 181.771V3.71296C25.0744 2.72635 25.4719 1.78299 26.172 1.08779C26.8722 0.392589 27.8183 0.00169011 28.8049 0H155.472C156.465 0 157.418 0.394642 158.121 1.09711C158.823 1.79957 159.218 2.75232 159.218 3.74576V181.771C159.218 182.765 158.823 183.717 158.121 184.42C157.418 185.122 156.465 185.517 155.472 185.517ZM28.8049 0.131201C27.8561 0.132938 26.9468 0.511067 26.2765 1.18259C25.6062 1.85411 25.2297 2.76415 25.2297 3.71296V181.771C25.2297 182.72 25.6062 183.63 26.2765 184.301C26.9468 184.973 27.8561 185.351 28.8049 185.353H155.472C156.421 185.351 157.331 184.973 158.003 184.302C158.674 183.631 159.052 182.72 159.054 181.771V3.71296C159.052 2.76355 158.674 1.85352 158.003 1.18219C157.331 0.510854 156.421 0.132935 155.472 0.131201H28.8049Z" fill="#EBEBEB"/>
<path d="M297.371 185.517H170.698C169.705 185.515 168.753 185.12 168.051 184.418C167.349 183.716 166.954 182.764 166.952 181.771V3.71296C166.962 2.72575 167.361 1.7824 168.063 1.08738C168.764 0.392359 169.711 0.00167168 170.698 0H297.371C298.357 0.00341415 299.301 0.395076 300 1.09009C300.699 1.78511 301.095 2.72749 301.104 3.71296V181.771C301.104 182.762 300.711 183.713 300.012 184.415C299.312 185.117 298.363 185.513 297.371 185.517ZM170.698 0.131201C169.748 0.132935 168.838 0.510854 168.167 1.18219C167.496 1.85352 167.118 2.76355 167.116 3.71296V181.771C167.118 182.72 167.496 183.631 168.167 184.302C168.838 184.973 169.748 185.351 170.698 185.353H297.371C298.321 185.351 299.231 184.973 299.902 184.302C300.574 183.631 300.951 182.72 300.953 181.771V3.71296C300.951 2.76355 300.574 1.85352 299.902 1.18219C299.231 0.510854 298.321 0.132935 297.371 0.131201H170.698Z" fill="#EBEBEB"/>
<path d="M75.44 78.4773C79.078 78.4773 82.5669 77.0321 85.1394 74.4597C87.7118 71.8873 89.157 68.3983 89.157 64.7603C89.157 61.1224 87.7118 57.6334 85.1394 55.061C82.5669 52.4885 79.078 51.0434 75.44 51.0434H73.7541V78.4773H75.44Z" fill="#E0E0E0"/>
<path d="M73.741 78.4773C81.3166 78.4773 87.4579 72.336 87.4579 64.7603C87.4579 57.1847 81.3166 51.0434 73.741 51.0434C66.1653 51.0434 60.024 57.1847 60.024 64.7603C60.024 72.336 66.1653 78.4773 73.741 78.4773Z" fill="#F5F5F5"/>
<path d="M73.1112 66.4791C68.2397 66.4791 63.5678 64.5439 60.1231 61.0992C56.6784 57.6545 54.7432 52.9825 54.7432 48.1111V37.1493C54.7432 36.6917 54.925 36.2529 55.2485 35.9293C55.5721 35.6058 56.0109 35.424 56.4685 35.424C56.9261 35.424 57.3649 35.6058 57.6885 35.9293C58.012 36.2529 58.1938 36.6917 58.1938 37.1493V48.1176C58.1973 52.0718 59.7691 55.8631 62.5645 58.6597C65.3599 61.4563 69.1505 63.0298 73.1047 63.0351C73.3397 63.0205 73.5753 63.0543 73.7968 63.1343C74.0184 63.2143 74.2212 63.3387 74.3928 63.5001C74.5644 63.6614 74.7011 63.8561 74.7946 64.0723C74.8881 64.2885 74.9363 64.5215 74.9363 64.7571C74.9363 64.9926 74.8881 65.2256 74.7946 65.4418C74.7011 65.658 74.5644 65.8527 74.3928 66.0141C74.2212 66.1754 74.0184 66.2999 73.7968 66.3798C73.5753 66.4598 73.3397 66.4936 73.1047 66.4791H73.1112Z" fill="#E0E0E0"/>
<path d="M41.2165 46.8056H71.7336C72.2217 46.8057 72.7032 46.6937 73.1412 46.4784C73.5791 46.263 73.9618 45.9499 74.2597 45.5633C74.5575 45.1767 74.7627 44.7269 74.8593 44.2485C74.9559 43.7701 74.9414 43.2759 74.8168 42.804L72.16 32.8C71.9807 32.1204 71.5818 31.5191 71.0254 31.0896C70.469 30.6602 69.7863 30.4266 69.0834 30.4253H43.8667C43.163 30.4263 42.4793 30.6596 41.9218 31.089C41.3643 31.5184 40.9642 32.1199 40.7835 32.8L38.1595 42.7909C38.0318 43.2616 38.014 43.7554 38.1075 44.234C38.201 44.7127 38.4033 45.1635 38.6988 45.5515C38.9943 45.9395 39.375 46.2544 39.8115 46.4719C40.2481 46.6893 40.7288 46.8035 41.2165 46.8056Z" fill="#F5F5F5"/>
<path d="M269.144 78.4773C272.782 78.4773 276.271 77.0321 278.843 74.4597C281.416 71.8873 282.861 68.3983 282.861 64.7603C282.861 61.1224 281.416 57.6334 278.843 55.061C276.271 52.4885 272.782 51.0434 269.144 51.0434H267.458V78.4773H269.144Z" fill="#E0E0E0"/>
<path d="M267.458 78.4773C275.033 78.4773 281.175 72.336 281.175 64.7603C281.175 57.1847 275.033 51.0434 267.458 51.0434C259.882 51.0434 253.741 57.1847 253.741 64.7603C253.741 72.336 259.882 78.4773 267.458 78.4773Z" fill="#F5F5F5"/>
<path d="M266.828 66.4791C261.957 66.4791 257.285 64.5439 253.84 61.0992C250.395 57.6545 248.46 52.9825 248.46 48.1111V37.1493C248.46 36.6917 248.642 36.2529 248.965 35.9293C249.289 35.6058 249.728 35.424 250.185 35.424C250.643 35.424 251.082 35.6058 251.405 35.9293C251.729 36.2529 251.911 36.6917 251.911 37.1493V48.1176C251.914 52.0718 253.486 55.8631 256.281 58.6597C259.077 61.4563 262.867 63.0298 266.821 63.0351C267.057 63.0205 267.292 63.0543 267.514 63.1343C267.735 63.2143 267.938 63.3387 268.11 63.5001C268.281 63.6614 268.418 63.8561 268.511 64.0723C268.605 64.2885 268.653 64.5215 268.653 64.7571C268.653 64.9926 268.605 65.2256 268.511 65.4418C268.418 65.658 268.281 65.8527 268.11 66.0141C267.938 66.1754 267.735 66.2999 267.514 66.3798C267.292 66.4598 267.057 66.4936 266.821 66.4791H266.828Z" fill="#E0E0E0"/>
<path d="M234.933 46.8056H265.45C265.938 46.8057 266.42 46.6937 266.858 46.4784C267.296 46.263 267.679 45.9499 267.976 45.5633C268.274 45.1767 268.479 44.7269 268.576 44.2485C268.673 43.7701 268.658 43.2759 268.534 42.804L265.91 32.8131C265.73 32.1335 265.331 31.5322 264.775 31.1028C264.219 30.6733 263.536 30.4397 262.833 30.4384H237.584C236.88 30.4394 236.196 30.6727 235.639 31.1021C235.081 31.5315 234.681 32.133 234.5 32.8131L231.876 42.804C231.751 43.2739 231.735 43.7662 231.83 44.2432C231.924 44.7201 232.127 45.1691 232.422 45.5555C232.717 45.9419 233.097 46.2555 233.533 46.4722C233.968 46.689 234.447 46.803 234.933 46.8056Z" fill="#F5F5F5"/>
<path d="M87.8909 171.124H97.8687V132.466H87.8909V171.124Z" fill="#E6E6E6"/>
<path d="M60.844 171.118H93.9523L98.951 125.873H65.8427L60.844 171.118Z" fill="#F0F0F0"/>
<path d="M57.2557 171.118H91.4595L96.4582 125.873H62.261L57.2557 171.118Z" fill="#F5F5F5"/>
<path d="M88.9864 167.556L93.1979 129.442H64.7275L60.516 167.556H88.9864Z" fill="white"/>
<path d="M83.1087 158.313L83.312 156.784C84.3682 147.22 78.3986 138.698 70.6447 138.698L70.4675 140.253C69.4114 149.811 75.381 158.332 83.1415 158.332L83.1087 158.313Z" fill="#F5F5F5"/>
<path d="M38.7631 214.774H68.1781V171.118H38.7631L38.7631 214.774Z" fill="#E6E6E6"/>
<path d="M41.715 214.774H38.7565V206.358H44.8179L41.715 214.774Z" fill="#F0F0F0"/>
<path d="M121.203 214.774H150.618V171.118H121.203V214.774Z" fill="#E6E6E6"/>
<path d="M38.7565 209.612H123.781V171.124H38.7565V209.612Z" fill="#F0F0F0"/>
<path d="M120.822 214.774H123.781V206.358H117.719L120.822 214.774Z" fill="#F0F0F0"/>
<path d="M41.0525 189.059H121.485V173.525H41.0525V189.059Z" fill="#E6E6E6"/>
<path d="M75.9058 183.68H86.6314C88.9375 183.681 91.2194 183.211 93.3377 182.3C95.4561 181.389 97.3661 180.055 98.9511 178.38H63.5861C65.1718 180.054 67.082 181.387 69.2001 182.298C71.3183 183.21 73.5999 183.68 75.9058 183.68Z" fill="#F0F0F0"/>
<path d="M41.0525 207.099H121.485V191.565H41.0525V207.099Z" fill="#E6E6E6"/>
<path d="M75.9058 201.694H86.6314C88.9375 201.695 91.2194 201.225 93.3377 200.314C95.4561 199.402 97.3661 198.068 98.9511 196.393H63.5861C65.1718 198.067 67.082 199.401 69.2001 200.312C71.3183 201.224 73.5999 201.694 75.9058 201.694Z" fill="#F0F0F0"/>
<path d="M118.395 169.34H119.156C119.156 167.772 119.156 163.803 119.235 154.705C119.372 138.206 119.635 137.202 119.635 137.202L117.824 144.819C116.676 153.248 118.159 161.724 118.395 169.34Z" fill="#E6E6E6"/>
<path d="M116.893 143.664C114.269 140.561 108.725 139.656 103.031 138.882C100.794 138.58 108.903 143.69 112.871 147.318C115.955 150.139 117.923 150.919 118.775 153.727C119.208 150.224 119.136 146.36 116.893 143.664Z" fill="#E6E6E6"/>
<path d="M120.35 149.227C122.974 146.124 128.517 145.225 134.211 144.451C136.448 144.149 128.307 149.26 124.371 152.887C121.288 155.708 119.32 156.489 118.467 159.297C118.034 155.793 118.08 151.903 120.35 149.227Z" fill="#E6E6E6"/>
<path d="M119.235 136.448C121.203 132.735 126.096 129.232 131.613 127.92C133.778 127.402 126.595 134.769 123.866 139.525C121.747 143.211 118.939 147.554 118.5 150.677C117.844 144.523 117.28 140.181 119.235 136.448Z" fill="#E6E6E6"/>
<path d="M118.998 171.118C116.676 171.118 114.754 169.957 114.616 168.461L114.229 165.916H123.774L123.381 168.461C123.249 169.957 121.36 171.118 118.998 171.118Z" fill="#F0F0F0"/>
<path d="M124.391 166.893H113.613L113.304 164.052H124.699L124.391 166.893Z" fill="#F0F0F0"/>
<path d="M111.218 112.648L216.316 112.648V16.787L111.218 16.787L111.218 112.648Z" fill="#E6E6E6"/>
<path d="M108.857 112.648L215.286 112.648V16.787L108.857 16.787L108.857 112.648Z" fill="#F5F5F5"/>
<path d="M211.035 108.358V21.0838L113.094 21.0838V108.358H211.035Z" fill="#FAFAFA"/>
<path d="M199.024 108.358L160.477 21.0838H147.384L185.93 108.358H199.024Z" fill="white"/>
<path d="M182.217 108.358L143.671 21.0838H134.657L173.204 108.358H182.217Z" fill="white"/>
<path d="M149.463 108.352V21.0773H144.399V108.352H149.463Z" fill="#E6E6E6"/>
<path d="M183.129 108.352V21.0773H178.065V108.352H183.129Z" fill="#E6E6E6"/>
<path d="M148.551 111.081V17.8891H142.149V111.081H148.551Z" fill="#F5F5F5"/>
<path d="M182.217 111.081V17.8891H175.815V111.081H182.217Z" fill="#F5F5F5"/>
<path d="M113.554 108.358V21.0839H113.101V108.358H113.554Z" fill="#E6E6E6"/>
<path d="M107.072 11.2635H220.928C221.073 11.2652 221.212 11.3238 221.315 11.4268C221.418 11.5298 221.477 11.6689 221.479 11.8146C221.477 11.9596 221.418 12.098 221.315 12.2C221.212 12.3019 221.073 12.359 220.928 12.359H107.072C106.927 12.359 106.788 12.3019 106.685 12.2C106.582 12.098 106.523 11.9596 106.521 11.8146C106.523 11.6689 106.582 11.5298 106.685 11.4268C106.788 11.3238 106.927 11.2652 107.072 11.2635Z" fill="#E6E6E6"/>
<path d="M216.316 14.8781C216.512 14.8764 216.698 14.7975 216.836 14.6587C216.974 14.5198 217.051 14.3323 217.051 14.1368V12.5493C217.052 12.4523 217.033 12.356 216.997 12.2661C216.96 12.1762 216.906 12.0944 216.838 12.0255C216.77 11.9566 216.688 11.9019 216.599 11.8646C216.509 11.8272 216.413 11.808 216.316 11.808C216.121 11.808 215.933 11.8852 215.794 12.0228C215.655 12.1604 215.576 12.3473 215.575 12.5427V14.1303C215.575 14.3275 215.653 14.5167 215.791 14.6568C215.93 14.7968 216.119 14.8764 216.316 14.8781Z" fill="#E6E6E6"/>
<path d="M115.325 14.8781C115.521 14.8764 115.708 14.7977 115.847 14.6591C115.986 14.5204 116.064 14.3329 116.066 14.1368V12.5493C116.066 12.3527 115.988 12.1641 115.849 12.0251C115.71 11.8861 115.521 11.808 115.325 11.808C115.13 11.808 114.943 11.8854 114.805 12.0232C114.668 12.161 114.59 12.3479 114.59 12.5427V14.1303C114.589 14.2276 114.608 14.3242 114.644 14.4144C114.68 14.5047 114.734 14.5869 114.803 14.6563C114.871 14.7258 114.952 14.7811 115.042 14.8192C115.131 14.8572 115.227 14.8772 115.325 14.8781Z" fill="#E6E6E6"/>
<path opacity="0.6" d="M107.243 86.8806L213.6 86.8806V11.808L107.243 11.808L107.243 86.8806Z" fill="#E0E0E0"/>
<path d="M223.23 134.46H204.889C202.939 134.46 201.359 136.04 201.359 137.99V146.478C201.359 148.427 202.939 150.008 204.889 150.008H223.23C225.179 150.008 226.76 148.427 226.76 146.478V137.99C226.76 136.04 225.179 134.46 223.23 134.46Z" fill="#FAFAFA"/>
<path d="M225.572 131.587H202.547C201.891 131.587 201.359 132.119 201.359 132.774V133.732C201.359 134.388 201.891 134.92 202.547 134.92H225.572C226.228 134.92 226.76 134.388 226.76 133.732V132.774C226.76 132.119 226.228 131.587 225.572 131.587Z" fill="#E6E6E6"/>
<path d="M201.733 167.28C201.733 167.28 202.068 178.216 214.807 178.216C227.547 178.216 227.881 167.28 227.881 167.28H201.733Z" fill="#F0F0F0"/>
<path d="M230.781 167.28C230.781 167.28 231.115 178.216 243.855 178.216C256.594 178.216 256.929 167.28 256.929 167.28H230.781Z" fill="#F0F0F0"/>
<path d="M250.618 127.421H225.428C222.747 127.421 220.573 129.595 220.573 132.276V145.16C220.573 147.841 222.747 150.014 225.428 150.014H250.618C253.299 150.014 255.473 147.841 255.473 145.16V132.276C255.473 129.595 253.299 127.421 250.618 127.421Z" fill="#F0F0F0"/>
<path d="M253.846 123.472H222.2C221.302 123.472 220.573 124.201 220.573 125.099V126.424C220.573 127.323 221.302 128.051 222.2 128.051H253.846C254.744 128.051 255.473 127.323 255.473 126.424V125.099C255.473 124.201 254.744 123.472 253.846 123.472Z" fill="#F5F5F5"/>
<path d="M192.136 214.774H195.442V160.563H192.136V214.774Z" fill="#E6E6E6"/>
<path d="M287.604 150.008H269.701V160.556H287.604V150.008Z" fill="#E6E6E6"/>
<path d="M180.689 160.563H269.695V150.014H180.689V160.563Z" fill="#F5F5F5"/>
<path d="M287.604 178.183H269.701V188.731H287.604V178.183Z" fill="#E6E6E6"/>
<path d="M180.689 188.731H269.695V178.183H180.689V188.731Z" fill="#F5F5F5"/>
<path d="M281.142 214.774H284.448V160.563H281.142V214.774Z" fill="#E6E6E6"/>
<path d="M266.395 214.774H269.701V160.563H266.395V214.774Z" fill="#F5F5F5"/>
<path d="M180.689 214.774H183.995V160.563H180.689V214.774Z" fill="#F5F5F5"/>
<path d="M164 244.399C234.246 244.399 291.192 241.075 291.192 236.973C291.192 232.872 234.246 229.548 164 229.548C93.7539 229.548 36.8082 232.872 36.8082 236.973C36.8082 241.075 93.7539 244.399 164 244.399Z" fill="#F5F5F5"/>
<path d="M170.829 203.688H87.1431C85.7974 203.669 84.5086 203.142 83.5353 202.212C82.562 201.283 81.9761 200.02 81.8951 198.676L74.3904 53.3394C74.3488 52.6929 74.4412 52.0448 74.6618 51.4357C74.8824 50.8266 75.2264 50.2697 75.6723 49.7998C76.1182 49.3298 76.6564 48.9571 77.2531 48.7049C77.8498 48.4527 78.4921 48.3264 79.1399 48.3341H162.826C164.171 48.3515 165.46 48.8773 166.433 49.8057C167.407 50.7342 167.993 51.9966 168.074 53.3394L175.565 198.676C175.607 199.322 175.515 199.969 175.295 200.578C175.075 201.186 174.733 201.743 174.288 202.213C173.844 202.683 173.307 203.057 172.712 203.311C172.117 203.565 171.476 203.693 170.829 203.688Z" fill="#233C69"/>
<path opacity="0.8" d="M170.829 203.688H87.1431C85.7974 203.669 84.5086 203.142 83.5353 202.212C82.562 201.283 81.9761 200.02 81.8951 198.676L74.3904 53.3394C74.3488 52.6929 74.4412 52.0448 74.6618 51.4357C74.8824 50.8266 75.2264 50.2697 75.6723 49.7998C76.1182 49.3298 76.6564 48.9571 77.2531 48.7049C77.8498 48.4527 78.4921 48.3264 79.1399 48.3341H162.826C164.171 48.3515 165.46 48.8773 166.433 49.8057C167.407 50.7342 167.993 51.9966 168.074 53.3394L175.565 198.676C175.607 199.322 175.515 199.969 175.295 200.578C175.075 201.186 174.733 201.743 174.288 202.213C173.844 202.683 173.307 203.057 172.712 203.311C172.117 203.565 171.476 203.693 170.829 203.688Z" fill="white"/>
<path d="M154.567 43.5978H145.311V44.2538H154.567V43.5978Z" fill="#233C69"/>
<path d="M142.103 43.5978H138.711V44.2538H142.103V43.5978Z" fill="#233C69"/>
<path d="M174.43 194.465H94.3984C93.1096 194.452 91.8734 193.952 90.9387 193.065C90.0039 192.177 89.4399 190.969 89.3604 189.682L82.1968 50.676C82.157 50.0573 82.2455 49.4371 82.4567 48.8542C82.6678 48.2713 82.9972 47.7384 83.424 47.2887C83.8508 46.8391 84.366 46.4825 84.9371 46.2413C85.5082 46.0002 86.123 45.8796 86.7429 45.8872H166.775C168.064 45.9014 169.299 46.4033 170.233 47.2919C171.166 48.1804 171.729 49.3896 171.806 50.676L178.97 189.682C179.01 190.3 178.922 190.92 178.711 191.502C178.5 192.084 178.171 192.616 177.745 193.065C177.319 193.514 176.804 193.87 176.234 194.111C175.663 194.352 175.05 194.472 174.43 194.465Z" fill="#233C69"/>
<path d="M174.43 191.27H94.3985C93.9291 191.254 93.4821 191.066 93.1422 190.742C92.8024 190.418 92.5934 189.98 92.5551 189.512L85.385 50.512C85.3688 50.3271 85.392 50.1409 85.453 49.9656C85.5141 49.7903 85.6117 49.63 85.7393 49.4952C85.8672 49.3607 86.0223 49.255 86.1942 49.1849C86.3661 49.1147 86.5509 49.0819 86.7364 49.0885H166.768C167.237 49.1062 167.682 49.2949 168.021 49.6189C168.359 49.9428 168.567 50.3796 168.605 50.8466L175.808 189.846C175.824 190.031 175.801 190.216 175.74 190.391C175.679 190.565 175.582 190.725 175.455 190.859C175.328 190.994 175.174 191.1 175.003 191.171C174.832 191.241 174.648 191.275 174.463 191.27H174.43ZM86.7364 49.2525C86.5733 49.2472 86.4109 49.276 86.2595 49.337C86.1082 49.398 85.9712 49.4899 85.8574 49.6067C85.7478 49.7279 85.664 49.87 85.611 50.0245C85.558 50.179 85.537 50.3426 85.549 50.5055L92.7126 189.505C92.7491 189.931 92.9399 190.329 93.2492 190.624C93.5585 190.918 93.9649 191.09 94.3919 191.106H174.424C174.586 191.112 174.748 191.084 174.898 191.023C175.049 190.962 175.185 190.869 175.296 190.752C175.409 190.632 175.494 190.491 175.547 190.336C175.6 190.181 175.62 190.016 175.605 189.853L168.448 50.8532C168.413 50.428 168.223 50.0304 167.915 49.7354C167.607 49.4405 167.201 49.2687 166.775 49.2525H86.7364Z" fill="white"/>
<path opacity="0.3" d="M146.437 99.7486C155.54 90.4077 154.947 75.0666 145.113 65.4834C135.279 55.9003 119.928 55.7039 110.825 65.0449C101.722 74.3859 102.315 89.7269 112.149 99.3101C121.983 108.893 137.334 109.09 146.437 99.7486Z" fill="white"/>
<path d="M148.256 82.4002C148.44 85.6239 147.791 88.8407 146.373 91.7416C144.838 94.8531 142.456 97.4677 139.5 99.2841C136.543 101.1 133.134 102.045 129.665 102.008C126.07 101.976 122.544 101.013 119.431 99.214C116.318 97.4149 113.724 94.8406 111.901 91.7416C110.201 88.9077 109.224 85.7 109.054 82.4002C108.892 79.8695 109.254 77.3327 110.118 74.9484C110.982 72.5642 112.328 70.3839 114.073 68.544C115.818 66.7041 117.924 65.2442 120.26 64.2557C122.595 63.2671 125.109 62.7712 127.645 62.7989C132.922 62.8539 137.983 64.9067 141.807 68.5437C145.632 72.1808 147.936 77.132 148.256 82.4002Z" fill="white"/>
<path d="M146.354 91.7416C144.819 94.8531 142.436 97.4677 139.48 99.2841C136.524 101.1 133.115 102.045 129.645 102.008C126.05 101.976 122.524 101.013 119.411 99.214C116.298 97.415 113.704 94.8407 111.881 91.7416C116.866 88.2988 122.787 86.4672 128.845 86.4936C135.065 86.5171 141.146 88.3397 146.354 91.7416Z" fill="#233C69"/>
<path d="M134.708 81.9444C137.987 78.579 137.773 73.0509 134.228 69.5969C130.684 66.1429 125.152 66.071 121.873 69.4364C118.593 72.8017 118.808 78.3299 122.352 81.7839C125.896 85.2379 131.428 85.3097 134.708 81.9444Z" fill="#233C69"/>
<path d="M162.957 140.384H100.289C99.7435 140.378 99.2201 140.166 98.8245 139.79C98.4289 139.414 98.1905 138.902 98.1573 138.357L97.685 129.173C97.6687 128.912 97.7066 128.65 97.7961 128.404C97.8856 128.158 98.025 127.933 98.2054 127.744C98.3858 127.554 98.6034 127.404 98.8446 127.302C99.0858 127.2 99.3454 127.149 99.6071 127.153H162.275C162.82 127.158 163.342 127.369 163.738 127.744C164.133 128.119 164.372 128.629 164.407 129.173L164.879 138.357C164.896 138.619 164.859 138.881 164.77 139.128C164.681 139.375 164.542 139.6 164.361 139.791C164.181 139.981 163.963 140.132 163.721 140.234C163.48 140.336 163.219 140.387 162.957 140.384Z" fill="white"/>
<path opacity="0.3" d="M143.769 122.082H117.595C117.047 122.078 116.521 121.865 116.123 121.487C115.726 121.11 115.488 120.595 115.456 120.048L115.358 118.08C115.34 117.818 115.378 117.556 115.467 117.309C115.556 117.062 115.695 116.837 115.876 116.646C116.056 116.456 116.274 116.305 116.516 116.203C116.757 116.101 117.017 116.05 117.28 116.053H143.448C143.993 116.059 144.517 116.271 144.912 116.647C145.308 117.023 145.546 117.535 145.58 118.08L145.685 120.048C145.701 120.309 145.663 120.571 145.574 120.817C145.485 121.064 145.347 121.289 145.167 121.48C144.988 121.67 144.771 121.822 144.53 121.925C144.29 122.029 144.031 122.082 143.769 122.082Z" fill="black"/>
<path opacity="0.3" d="M153.504 184.539H114.295C113.366 184.528 112.477 184.166 111.804 183.526C111.131 182.886 110.725 182.016 110.667 181.089L110.438 176.562C110.415 176.118 110.482 175.673 110.637 175.255C110.791 174.837 111.029 174.455 111.336 174.132C111.643 173.809 112.012 173.552 112.422 173.377C112.831 173.201 113.272 173.111 113.718 173.112H152.914C153.842 173.123 154.732 173.485 155.405 174.125C156.077 174.765 156.483 175.636 156.541 176.562L156.771 181.089C156.794 181.533 156.727 181.976 156.573 182.393C156.419 182.81 156.183 183.192 155.877 183.514C155.572 183.837 155.204 184.094 154.796 184.271C154.388 184.447 153.948 184.538 153.504 184.539Z" fill="black"/>
<path d="M164.105 162.596H101.431C100.885 162.589 100.363 162.376 99.9676 162C99.5723 161.625 99.3335 161.113 99.2988 160.569L98.8265 151.385C98.8103 151.124 98.8481 150.862 98.9375 150.615C99.027 150.369 99.1662 150.144 99.3466 149.954C99.5269 149.763 99.7444 149.612 99.9856 149.51C100.227 149.407 100.487 149.356 100.749 149.358H163.416C163.962 149.364 164.486 149.576 164.881 149.952C165.277 150.328 165.515 150.84 165.548 151.385L166.027 160.569C166.042 160.83 166.004 161.092 165.914 161.338C165.824 161.584 165.685 161.809 165.505 161.999C165.325 162.189 165.108 162.34 164.867 162.442C164.626 162.545 164.367 162.598 164.105 162.596Z" fill="white"/>
<path d="M108.24 133.765C108.258 134.055 108.216 134.345 108.117 134.618C108.018 134.891 107.863 135.141 107.663 135.351C107.463 135.562 107.222 135.729 106.954 135.842C106.686 135.955 106.398 136.012 106.108 136.008C105.505 136.001 104.926 135.766 104.489 135.35C104.053 134.934 103.789 134.367 103.753 133.765C103.734 133.475 103.775 133.185 103.874 132.912C103.972 132.639 104.126 132.39 104.326 132.179C104.525 131.968 104.766 131.801 105.033 131.688C105.301 131.575 105.588 131.518 105.878 131.521C106.482 131.529 107.062 131.764 107.5 132.18C107.937 132.596 108.202 133.162 108.24 133.765Z" fill="#263238"/>
<path d="M115.148 133.765C115.167 134.055 115.126 134.345 115.027 134.618C114.929 134.891 114.775 135.14 114.575 135.351C114.376 135.562 114.135 135.729 113.867 135.842C113.6 135.955 113.312 136.012 113.022 136.009C112.418 136.003 111.839 135.768 111.402 135.351C110.965 134.935 110.702 134.368 110.667 133.765C110.648 133.475 110.689 133.185 110.788 132.912C110.886 132.639 111.04 132.39 111.24 132.179C111.439 131.968 111.68 131.801 111.948 131.688C112.215 131.575 112.503 131.518 112.793 131.521C113.397 131.527 113.976 131.762 114.413 132.179C114.85 132.595 115.113 133.162 115.148 133.765Z" fill="#263238"/>
<path d="M122.016 133.765C122.035 134.055 121.994 134.345 121.895 134.618C121.797 134.891 121.643 135.14 121.443 135.351C121.244 135.562 121.003 135.729 120.736 135.842C120.468 135.955 120.181 136.012 119.891 136.009C119.287 136.001 118.707 135.766 118.27 135.35C117.832 134.934 117.567 134.368 117.529 133.765C117.511 133.475 117.553 133.185 117.652 132.912C117.751 132.639 117.906 132.389 118.106 132.179C118.306 131.968 118.547 131.801 118.815 131.688C119.083 131.575 119.371 131.518 119.661 131.521C120.264 131.529 120.843 131.764 121.28 132.18C121.716 132.596 121.98 133.163 122.016 133.765Z" fill="#263238"/>
<path d="M128.937 133.765C128.955 134.054 128.913 134.344 128.814 134.617C128.715 134.889 128.561 135.139 128.362 135.349C128.163 135.559 127.922 135.727 127.655 135.84C127.389 135.954 127.101 136.011 126.811 136.009C126.207 136.001 125.628 135.766 125.19 135.35C124.752 134.934 124.488 134.368 124.45 133.765C124.432 133.476 124.474 133.186 124.572 132.913C124.671 132.641 124.825 132.391 125.025 132.181C125.224 131.971 125.465 131.803 125.731 131.69C125.998 131.576 126.285 131.519 126.575 131.521C127.179 131.529 127.758 131.764 128.196 132.18C128.634 132.596 128.899 133.162 128.937 133.765Z" fill="#263238"/>
<path d="M109.401 155.964C109.42 156.254 109.379 156.544 109.281 156.817C109.182 157.09 109.028 157.339 108.829 157.55C108.629 157.761 108.388 157.928 108.121 158.041C107.854 158.154 107.566 158.211 107.276 158.208C106.672 158.2 106.093 157.965 105.655 157.549C105.217 157.133 104.952 156.567 104.914 155.964C104.896 155.674 104.938 155.384 105.037 155.111C105.137 154.838 105.291 154.588 105.491 154.378C105.691 154.167 105.933 154 106.2 153.887C106.468 153.774 106.756 153.717 107.046 153.721C107.65 153.728 108.228 153.963 108.665 154.379C109.102 154.796 109.365 155.362 109.401 155.964Z" fill="#263238"/>
<path d="M116.296 155.964C116.314 156.253 116.272 156.543 116.173 156.816C116.074 157.088 115.92 157.338 115.721 157.548C115.522 157.758 115.281 157.926 115.014 158.039C114.747 158.153 114.46 158.21 114.17 158.208C113.566 158.2 112.987 157.965 112.549 157.549C112.111 157.133 111.847 156.567 111.809 155.964C111.79 155.674 111.831 155.384 111.929 155.111C112.028 154.838 112.182 154.589 112.381 154.378C112.581 154.167 112.822 154 113.089 153.887C113.356 153.774 113.644 153.717 113.934 153.721C114.538 153.728 115.117 153.963 115.555 154.379C115.993 154.795 116.258 155.361 116.296 155.964Z" fill="#263238"/>
<path d="M123.19 155.964C123.208 156.254 123.166 156.544 123.067 156.817C122.968 157.09 122.813 157.34 122.613 157.55C122.413 157.761 122.172 157.928 121.904 158.041C121.637 158.154 121.349 158.211 121.058 158.208C120.454 158.202 119.875 157.967 119.438 157.551C119.001 157.134 118.738 156.567 118.703 155.964C118.684 155.674 118.725 155.384 118.824 155.111C118.922 154.838 119.076 154.589 119.276 154.378C119.475 154.167 119.716 154 119.984 153.887C120.251 153.774 120.539 153.717 120.829 153.721C121.433 153.728 122.012 153.963 122.45 154.379C122.888 154.795 123.152 155.361 123.19 155.964Z" fill="#263238"/>
<path d="M130.078 155.964C130.097 156.254 130.056 156.544 129.958 156.817C129.859 157.09 129.705 157.339 129.506 157.55C129.306 157.761 129.065 157.928 128.798 158.041C128.531 158.154 128.243 158.211 127.953 158.208C127.349 158.2 126.77 157.965 126.332 157.549C125.894 157.133 125.629 156.567 125.591 155.964C125.573 155.674 125.615 155.384 125.714 155.111C125.814 154.838 125.968 154.588 126.168 154.378C126.368 154.167 126.61 154 126.877 153.887C127.145 153.774 127.433 153.717 127.723 153.721C128.327 153.726 128.906 153.961 129.343 154.378C129.781 154.794 130.043 155.361 130.078 155.964Z" fill="#263238"/>
<path d="M136.973 155.964C136.992 156.254 136.951 156.544 136.852 156.817C136.754 157.09 136.6 157.34 136.4 157.55C136.201 157.761 135.96 157.928 135.693 158.041C135.425 158.154 135.138 158.211 134.847 158.208C134.243 158.201 133.664 157.965 133.226 157.549C132.788 157.133 132.524 156.567 132.486 155.964C132.468 155.675 132.51 155.385 132.608 155.112C132.707 154.84 132.861 154.591 133.061 154.38C133.26 154.17 133.501 154.002 133.767 153.889C134.034 153.776 134.321 153.718 134.611 153.721C135.215 153.728 135.794 153.963 136.232 154.379C136.67 154.795 136.935 155.361 136.973 155.964Z" fill="#263238"/>
<path d="M143.867 155.964C143.885 156.254 143.844 156.544 143.744 156.817C143.645 157.09 143.49 157.34 143.29 157.55C143.09 157.761 142.849 157.928 142.581 158.041C142.314 158.154 142.026 158.211 141.735 158.208C141.132 158.2 140.554 157.965 140.117 157.549C139.68 157.133 139.417 156.566 139.38 155.964C139.361 155.674 139.402 155.384 139.501 155.111C139.599 154.838 139.753 154.589 139.953 154.378C140.153 154.167 140.393 154 140.661 153.887C140.928 153.774 141.216 153.717 141.506 153.721C142.11 153.728 142.689 153.963 143.127 154.379C143.565 154.795 143.829 155.361 143.867 155.964Z" fill="#263238"/>
<path d="M218.448 79.7827C218.612 80.032 218.697 80.1632 218.802 80.3403L219.097 80.8258C219.288 81.1538 219.458 81.4818 219.622 81.8032C219.95 82.4592 220.278 83.1152 220.541 83.7712C221.091 85.0741 221.564 86.4081 221.958 87.7663C222.752 90.4492 223.275 93.2051 223.519 95.9925L223.565 96.5107C223.57 96.6156 223.57 96.7207 223.565 96.8256V97.1733C223.576 97.6295 223.549 98.0859 223.486 98.5378C223.36 99.3755 223.14 100.196 222.83 100.985C222.254 102.393 221.49 103.717 220.56 104.921C218.826 107.142 216.767 109.09 214.453 110.7L212.642 108.581C214.29 106.72 215.749 104.701 216.998 102.553C217.56 101.578 218.001 100.538 218.31 99.4562C218.436 98.998 218.508 98.527 218.527 98.0524C218.547 97.8495 218.547 97.6451 218.527 97.4423V97.3045C218.533 97.2435 218.533 97.1819 218.527 97.1208L218.448 96.6616C218.026 94.2168 217.43 91.8053 216.664 89.4456C216.283 88.2714 215.817 87.1365 215.352 86.0279C215.122 85.4703 214.86 84.9258 214.597 84.401L214.191 83.6269L213.987 83.2661L213.817 82.9775L218.448 79.7827Z" fill="#803E3C"/>
<path d="M212.347 110.713L214.722 115.732L216.605 111.487C216.605 111.487 214.932 107.814 212.669 108.155L212.347 110.713Z" fill="#7F3E3B"/>
<path d="M216.421 115.981L218.31 112.885L216.605 111.487L214.722 115.732L216.421 115.981Z" fill="#7F3E3B"/>
<path d="M205.741 231.712C206.232 231.7 206.721 231.634 207.198 231.516C207.222 231.508 207.244 231.495 207.261 231.476C207.278 231.458 207.29 231.435 207.296 231.411C207.3 231.385 207.297 231.36 207.286 231.336C207.276 231.313 207.259 231.293 207.237 231.279C207.047 231.155 205.381 230.079 204.738 230.368C204.666 230.401 204.605 230.452 204.56 230.517C204.515 230.581 204.488 230.657 204.482 230.735C204.462 230.854 204.471 230.975 204.509 231.09C204.547 231.204 204.612 231.307 204.698 231.391C204.996 231.621 205.366 231.735 205.741 231.712ZM206.824 231.325C205.873 231.522 205.151 231.489 204.856 231.233C204.795 231.174 204.751 231.1 204.727 231.018C204.703 230.937 204.7 230.851 204.718 230.768C204.718 230.656 204.784 230.623 204.829 230.604C205.184 230.446 206.148 230.912 206.824 231.325Z" fill="#233C69"/>
<path d="M207.165 231.516H207.23C207.25 231.503 207.266 231.485 207.278 231.465C207.289 231.444 207.296 231.421 207.296 231.397C207.296 231.332 207.296 229.751 206.693 229.22C206.618 229.153 206.531 229.103 206.436 229.074C206.341 229.044 206.24 229.036 206.142 229.049C206.038 229.05 205.938 229.086 205.858 229.152C205.778 229.217 205.723 229.308 205.702 229.41C205.577 230.033 206.574 231.214 207.099 231.516H207.165ZM206.227 229.292C206.28 229.29 206.333 229.299 206.382 229.318C206.432 229.338 206.477 229.366 206.515 229.403C206.862 229.913 207.04 230.519 207.027 231.135C206.502 230.715 205.879 229.823 205.958 229.449C205.958 229.39 206.004 229.311 206.168 229.292H206.227Z" fill="#233C69"/>
<path d="M199.549 229.036C199.564 229.017 199.574 228.994 199.578 228.969C199.581 228.945 199.578 228.92 199.569 228.897C199.559 228.875 199.544 228.855 199.524 228.84C199.505 228.825 199.481 228.816 199.457 228.813C199.188 228.813 196.833 228.701 196.295 229.279V229.318C196.25 229.375 196.222 229.442 196.211 229.513C196.201 229.585 196.209 229.658 196.236 229.725C196.271 229.837 196.333 229.94 196.416 230.023C196.5 230.107 196.602 230.169 196.715 230.204C197.476 230.44 198.821 229.58 199.555 229.049L199.549 229.036ZM196.492 229.449C196.787 229.134 198.086 229.049 199.057 229.062C198.04 229.758 197.194 230.086 196.767 229.954C196.693 229.932 196.625 229.891 196.57 229.836C196.515 229.781 196.475 229.714 196.452 229.639C196.439 229.614 196.432 229.586 196.432 229.557C196.432 229.529 196.439 229.501 196.452 229.475L196.492 229.449Z" fill="#233C69"/>
<path d="M199.549 229.036C199.559 229.015 199.564 228.993 199.564 228.97C199.564 228.948 199.559 228.925 199.549 228.905C199.516 228.852 198.781 227.593 197.915 227.33C197.791 227.294 197.66 227.283 197.532 227.299C197.403 227.315 197.279 227.357 197.167 227.422C196.853 227.606 196.833 227.822 196.872 227.96C197.043 228.57 198.716 229.108 199.437 229.102C199.46 229.101 199.482 229.095 199.502 229.083C199.521 229.072 199.537 229.056 199.549 229.036ZM197.194 227.724C197.231 227.688 197.273 227.657 197.318 227.632C197.399 227.58 197.491 227.547 197.586 227.535C197.681 227.522 197.778 227.531 197.869 227.56C198.44 227.711 198.971 228.446 199.214 228.806C198.433 228.721 197.246 228.242 197.148 227.875C197.139 227.847 197.139 227.817 197.147 227.789C197.156 227.761 197.172 227.736 197.194 227.717V227.724Z" fill="#233C69"/>
<path d="M206.771 60.5685C206.115 63.8485 204.698 70.9399 206.975 73.1178C206.975 73.1178 206.082 76.3978 200.028 76.3978C193.363 76.3978 196.846 73.1178 196.846 73.1178C200.48 72.2519 200.388 69.5492 199.752 67.017L206.771 60.5685Z" fill="#7F3E3B"/>
<path d="M195.672 52.8802C195.709 52.8862 195.746 52.8862 195.783 52.8802C195.814 52.8648 195.842 52.8435 195.865 52.8173C195.888 52.7911 195.905 52.7607 195.916 52.7277C195.927 52.6948 195.932 52.66 195.929 52.6253C195.926 52.5907 195.917 52.5569 195.901 52.5259C195.725 52.1517 195.461 51.8253 195.132 51.5742C194.804 51.3231 194.419 51.1545 194.012 51.0827C193.944 51.077 193.876 51.0976 193.822 51.1403C193.769 51.1829 193.733 51.2445 193.723 51.3123C193.716 51.381 193.736 51.4498 193.779 51.5038C193.822 51.5578 193.884 51.5927 193.953 51.601C194.275 51.6627 194.577 51.8003 194.835 52.0022C195.093 52.2041 195.299 52.4646 195.436 52.7621C195.461 52.8009 195.496 52.8323 195.538 52.853C195.579 52.8737 195.625 52.8831 195.672 52.8802Z" fill="#263238"/>
<path d="M193.684 55.76C193.168 56.7176 192.523 57.6004 191.769 58.384C191.973 58.5709 192.215 58.7112 192.479 58.795C192.743 58.8788 193.022 58.9042 193.297 58.8695L193.684 55.76Z" fill="#630F0F"/>
<path d="M194.176 55.0188C194.124 55.4583 193.841 55.7863 193.559 55.7535C193.277 55.7207 193.081 55.3336 193.133 54.8941C193.185 54.4546 193.468 54.1266 193.789 54.1594C194.11 54.1922 194.222 54.5792 194.176 55.0188Z" fill="#263238"/>
<path d="M193.874 54.1987L192.864 53.792C192.864 53.792 193.29 54.6579 193.874 54.1987Z" fill="#263238"/>
<path d="M205.341 227.79L199.988 229.036L196.734 216.729L202.087 215.483L205.341 227.79Z" fill="#7F3E3B"/>
<path d="M213.554 231.384H208.064L208.49 218.665H213.987L213.554 231.384Z" fill="#7F3E3B"/>
<path d="M207.624 230.748H213.797C213.904 230.747 214.008 230.785 214.089 230.855C214.17 230.925 214.222 231.022 214.237 231.129L214.938 236.009C214.952 236.133 214.94 236.258 214.902 236.376C214.864 236.494 214.802 236.603 214.719 236.695C214.635 236.788 214.534 236.861 214.42 236.912C214.307 236.962 214.184 236.987 214.059 236.987C211.908 236.954 210.871 236.823 208.155 236.823C206.483 236.823 204.042 237 201.74 237C199.437 237 199.306 234.717 200.27 234.513C204.574 233.582 205.256 232.309 206.706 231.089C206.962 230.87 207.287 230.75 207.624 230.748Z" fill="#263238"/>
<path d="M199.516 228.216L205.125 225.638C205.22 225.592 205.329 225.583 205.43 225.612C205.531 225.641 205.619 225.706 205.676 225.795L208.359 229.941C208.421 230.048 208.461 230.167 208.475 230.289C208.489 230.412 208.477 230.537 208.44 230.655C208.403 230.773 208.341 230.882 208.26 230.975C208.178 231.068 208.078 231.142 207.965 231.194C205.997 232.06 205 232.382 202.533 233.516C201.018 234.212 197.941 235.812 195.855 236.796C193.769 237.78 192.693 235.74 193.481 235.15C197.003 232.526 198.014 230.643 198.821 228.931C198.957 228.616 199.204 228.361 199.516 228.216Z" fill="#263238"/>
<path opacity="0.2" d="M196.734 216.729L198.479 223.329L203.767 221.826L202.094 215.483L196.734 216.729Z" fill="black"/>
<path opacity="0.2" d="M213.987 218.665H208.49L208.273 225.225H213.771L213.987 218.665Z" fill="black"/>
<path d="M216.48 74.3642C218.763 74.8693 221.203 83.0759 221.203 83.0759L214.748 89.9442C214.748 89.9442 209.389 82.2296 210.484 79.3957C211.593 76.4372 213.758 73.7738 216.48 74.3642Z" fill="#263238"/>
<path opacity="0.4" d="M212.833 79.5925C211.678 78.5364 210.897 78.8512 210.366 79.6909C209.841 82.1312 212.951 87.2415 214.204 89.1767C214.781 86.8676 215.444 82 212.833 79.5925Z" fill="black"/>
<path d="M187.557 74.5282C187.557 74.5282 184.933 75.4466 190.181 107.689H212.485C212.111 98.61 212.098 93.0077 216.421 74.3642C213.296 73.7194 210.128 73.3028 206.942 73.1178C203.57 72.8748 200.185 72.8748 196.813 73.1178C192.49 73.518 187.557 74.5282 187.557 74.5282Z" fill="#263238"/>
<path opacity="0.4" d="M187.354 86.9004C187.498 88.4682 187.688 90.2328 187.937 92.2271C189.768 90.5805 191.263 85.8967 190.712 83.1677C189.405 84.229 188.272 85.4885 187.354 86.9004Z" fill="black"/>
<path d="M189.742 82C188.538 85.0292 187.183 87.9959 185.681 90.8888C184.196 93.8862 182.44 96.7409 180.433 99.4168L180.013 99.9351L179.803 100.191C179.731 100.276 179.672 100.355 179.56 100.473C179.166 100.904 178.726 101.291 178.248 101.628C177.405 102.212 176.481 102.671 175.506 102.992C173.806 103.535 172.041 103.848 170.258 103.924C166.919 104.056 163.577 103.759 160.313 103.038L160.674 100.283C162.183 100.283 163.764 100.283 165.266 100.158C166.775 100.084 168.278 99.9174 169.766 99.6596C171.149 99.4439 172.501 99.0651 173.794 98.5312C174.316 98.3081 174.805 98.0122 175.244 97.6522C175.412 97.5118 175.563 97.3534 175.697 97.1799C175.697 97.1799 175.775 97.0749 175.828 97.0028L175.979 96.7863L176.287 96.3533C177.933 93.8107 179.4 91.1562 180.676 88.4092C181.988 85.6212 183.3 82.7282 184.5 79.8812L189.742 82Z" fill="#803E3C"/>
<path d="M187.557 74.5282C184.821 75.1842 181.463 82.6888 181.463 82.6888L187.131 91.02C187.131 91.02 194.681 81.5146 193.782 78.6151C192.864 75.5909 190.896 73.7147 187.557 74.5282Z" fill="#263238"/>
<path d="M162.249 100.703L157.519 98.5181L157.046 103.222C157.046 103.222 160.982 104.383 162.95 103.222L162.249 100.703Z" fill="#7F3E3B"/>
<path d="M154.691 98.0458L154.239 101.628L157.046 103.222L157.519 98.5181L154.691 98.0458Z" fill="#7F3E3B"/>
<path d="M209.146 55.3402C208.142 60.6997 207.834 62.9957 204.764 65.4295C200.172 69.0899 193.776 66.689 193.159 61.1392C192.595 56.1405 194.327 48.216 199.883 46.7072C201.107 46.3695 202.397 46.351 203.63 46.6535C204.863 46.9559 205.999 47.5692 206.927 48.4349C207.856 49.3006 208.548 50.3897 208.936 51.5985C209.325 52.8074 209.397 54.0955 209.146 55.3402Z" fill="#7F3E3B"/>
<path d="M197.371 56.4685C197.062 59.204 196.944 66.3085 202.953 66.5315C210.307 66.8005 212.511 60.516 211.855 58.0035C215.686 54.8875 216.237 49.528 211.934 45.428C207.631 41.328 198.158 43.6175 195.534 47.6125C192.208 52.5653 197.371 56.4685 197.371 56.4685Z" fill="#263238"/>
<path d="M204.738 47.0221C204.383 44.1357 204.659 42.148 207.362 42.148C210.064 42.148 213.751 43.1255 215.102 45.8872C216.454 48.649 216.565 52.972 212.793 52.5325C209.021 52.093 205.164 50.4727 204.738 47.0221Z" fill="#233C69"/>
<path d="M208.923 46.3267C208.267 42.8893 211.344 33.2067 218.815 32.5507C222.279 32.2555 223.88 35.9816 222.095 36.5983C225.375 36.5589 227.475 40.8951 224.418 41.5445C226.832 43.0927 226.235 46.2677 222.791 47.829C220.226 49.0098 209.809 51.0893 208.923 46.3267Z" fill="#263238"/>
<path d="M216.906 50.02C214.499 50.02 211.986 49.6658 210.425 48.6228C209.989 48.3596 209.621 47.9962 209.353 47.5627C209.085 47.1292 208.924 46.6381 208.884 46.13C208.882 46.0868 208.896 46.0445 208.924 46.0117C208.952 45.9788 208.992 45.9578 209.034 45.9528C209.056 45.9501 209.078 45.9519 209.099 45.9582C209.12 45.9644 209.14 45.975 209.156 45.9892C209.173 46.0034 209.187 46.0209 209.196 46.0406C209.206 46.0603 209.211 46.0818 209.212 46.1037C209.251 46.5622 209.398 47.005 209.641 47.3959C209.884 47.7869 210.215 48.1151 210.609 48.3538C213.581 50.3218 220.449 49.6658 222.587 49.0098C224.437 48.4063 225.69 47.232 225.94 45.8807C226.017 45.3848 225.956 44.877 225.763 44.4138C225.569 43.9506 225.251 43.5501 224.844 43.2567C224.828 43.2419 224.816 43.2242 224.807 43.2044C224.799 43.1847 224.794 43.1634 224.794 43.1419C224.794 43.1204 224.799 43.0991 224.807 43.0793C224.816 43.0596 224.828 43.0418 224.844 43.0271C224.875 42.997 224.916 42.9802 224.959 42.9802C225.002 42.9802 225.043 42.997 225.074 43.0271C225.532 43.3612 225.888 43.816 226.102 44.3408C226.316 44.8656 226.38 45.4396 226.287 45.9988C226.018 47.4748 224.687 48.7343 222.719 49.3772C220.82 49.8558 218.864 50.0721 216.906 50.02Z" fill="#263238"/>
<path d="M195.698 55.76C195.087 56.6169 194.835 57.6786 194.996 58.7186C195.213 60.0962 196.551 60.188 197.522 59.309C198.493 58.4299 199.339 56.8424 198.624 55.701C198.465 55.4544 198.245 55.2526 197.987 55.1148C197.728 54.977 197.438 54.9078 197.144 54.9137C196.851 54.9196 196.564 55.0005 196.311 55.1486C196.058 55.2968 195.847 55.5072 195.698 55.76Z" fill="#7F3E3B"/>
<path d="M196.072 107.689C196.072 107.689 199.26 145.402 202.573 166.657C205.243 183.824 207.355 223.952 207.355 223.952H214.847C214.847 223.952 217.51 185.025 216.159 168.048C212.728 125.08 220.383 121.577 212.505 107.696L196.072 107.689Z" fill="#233C69"/>
<path opacity="0.4" d="M205.505 121.944C202.536 125.06 200.14 128.675 198.427 132.624C199.299 141.099 200.336 150.506 201.438 158.746C205.96 147.038 207.362 134.356 205.505 121.944Z" fill="black"/>
<path d="M190.83 107.453C190.83 107.453 183.91 148.643 182.821 167.208C185.537 184.375 196.649 220.665 196.649 220.665L203.465 218.192C203.465 218.192 199.693 178.622 195.593 167.792C204.823 136.717 211.606 128.858 209.631 107.689C204.902 107.689 190.83 107.453 190.83 107.453Z" fill="#233C69"/>
<path d="M195.737 222.476L204.948 219.977L204.423 216.303L194.563 218.973L195.737 222.476Z" fill="#263238"/>
<path d="M206.325 224.103H215.87L216.369 220.757L206.273 220.416L206.325 224.103Z" fill="#263238"/>
<path d="M212.833 106.377L213.836 108.378C213.915 108.535 213.731 108.693 213.476 108.693H190.069C189.873 108.693 189.702 108.594 189.689 108.463L189.486 106.495C189.486 106.357 189.65 106.239 189.866 106.239H212.465C212.533 106.23 212.602 106.238 212.666 106.262C212.731 106.286 212.788 106.325 212.833 106.377Z" fill="#233C69"/>
<path opacity="0.5" d="M212.833 106.377L213.836 108.378C213.915 108.535 213.731 108.693 213.476 108.693H190.069C189.873 108.693 189.702 108.594 189.689 108.463L189.486 106.495C189.486 106.357 189.65 106.239 189.866 106.239H212.465C212.533 106.23 212.602 106.238 212.666 106.262C212.731 106.286 212.788 106.325 212.833 106.377Z" fill="black"/>
<path d="M209.795 108.896H210.399C210.524 108.896 210.615 108.83 210.609 108.758L210.32 106.134C210.32 106.056 210.209 105.997 210.091 105.997H209.481C209.362 105.997 209.271 106.056 209.277 106.134L209.559 108.758C209.572 108.844 209.677 108.896 209.795 108.896Z" fill="#233C69"/>
<path d="M201.674 89.7933C201.602 89.7922 201.532 89.7681 201.474 89.7244C201.416 89.6808 201.374 89.6199 201.353 89.5506C199.214 81.6392 194.793 75.1186 192.648 74.1346C192.481 74.0322 192.281 73.9992 192.09 74.0427C192.05 74.0636 192.007 74.0761 191.962 74.0796C191.918 74.083 191.873 74.0773 191.83 74.0627C191.788 74.0482 191.749 74.0251 191.716 73.9949C191.683 73.9647 191.656 73.9281 191.638 73.8873C191.62 73.8465 191.61 73.8023 191.609 73.7575C191.608 73.7128 191.617 73.6683 191.634 73.627C191.651 73.5856 191.677 73.5482 191.709 73.517C191.741 73.4859 191.779 73.4616 191.821 73.4458C192 73.3799 192.192 73.354 192.382 73.3699C192.573 73.3858 192.757 73.443 192.923 73.5376C195.193 74.6135 199.68 81.0423 201.923 89.1307C203.531 89.1307 206.01 88.9143 206.614 88.8618C207.362 87.9696 212.859 81.0947 210.806 73.5704C210.794 73.5291 210.79 73.4857 210.796 73.443C210.801 73.4003 210.814 73.3591 210.836 73.3218C210.857 73.2844 210.886 73.2518 210.92 73.2258C210.954 73.1998 210.994 73.1809 211.035 73.1702C211.119 73.1481 211.208 73.1598 211.283 73.2028C211.357 73.2458 211.412 73.3166 211.435 73.3999C213.725 81.7704 207.086 89.321 207.014 89.3931C206.988 89.425 206.957 89.4513 206.92 89.4704C206.884 89.4896 206.845 89.5012 206.804 89.5047C206.771 89.5047 203.498 89.7933 201.674 89.7933Z" fill="#233C69"/>
<path d="M212.544 94.4247C208.969 87.7269 207.506 87.2546 206.87 85.1029C207.352 83.8997 208.04 82.7897 208.903 81.8229C208.47 81.6983 207.539 81.5146 206.935 81.4031C207.001 81.1079 207.073 80.8192 207.139 80.5371C206.482 80.4637 205.818 80.4947 205.171 80.629V79.973C204.337 79.7917 203.482 79.7364 202.632 79.809C202.706 80.1195 202.778 80.4344 202.848 80.7536C202.192 80.8783 201.195 81.0816 200.716 81.2194C201.647 82.2733 202.33 83.5216 202.717 84.8733C200.789 88.1861 193.297 109.48 205.485 111.113C217.674 112.747 216.113 101.129 212.544 94.4247Z" fill="#233C69"/>
<path opacity="0.4" d="M212.544 94.4247C208.969 87.7269 207.506 87.2546 206.87 85.1029C207.352 83.8997 208.04 82.7897 208.903 81.8229C208.47 81.6983 207.539 81.5146 206.935 81.4031C207.001 81.1079 207.073 80.8192 207.139 80.5371C206.482 80.4637 205.818 80.4947 205.171 80.629V79.973C204.337 79.7917 203.482 79.7364 202.632 79.809C202.706 80.1195 202.778 80.4344 202.848 80.7536C202.192 80.8783 201.195 81.0816 200.716 81.2194C201.647 82.2733 202.33 83.5216 202.717 84.8733C200.789 88.1861 193.297 109.48 205.485 111.113C217.674 112.747 216.113 101.129 212.544 94.4247Z" fill="white"/>
<path d="M202.219 84.237C202.143 84.5748 202.11 84.9208 202.12 85.2669C202.12 85.5096 202.776 85.6736 203.504 85.7458C204.233 85.818 207.289 85.936 207.191 85.5949C207.093 85.2538 207.342 84.788 207.355 84.4994C207.368 84.2107 206.141 84.1976 205.112 84.237C204.082 84.2764 202.422 83.8696 202.219 84.237Z" fill="#233C69"/>
<path d="M195.127 108.896H195.731C195.849 108.896 195.941 108.83 195.934 108.758L195.652 106.134C195.652 106.056 195.541 105.997 195.416 105.997H194.832C194.714 105.997 194.622 106.056 194.629 106.134L194.911 108.758C194.898 108.844 195.003 108.896 195.127 108.896Z" fill="#233C69"/>
</svg>
